<svg width="496.158" height="496.158" xmlns="http://www.w3.org/2000/svg">

 <g>
  <title>background</title>
  <rect fill="none" id="canvas_background" height="402" width="582" y="-1" x="-1"/>
 </g>
 <g>
  <title>Layer 1</title>
  <g id="svg_1">
   <path id="svg_2" fill="#FF0000" d="m288.037,236.937l-149.525,-91.812c-4.082,-2.506 -9.453,-2.615 -13.632,-0.275c-4.255,2.379 -6.897,6.887 -6.897,11.762l0,182.901c0,4.867 2.634,9.369 6.877,11.754c2.011,1.129 4.294,1.727 6.603,1.727c2.475,0 4.899,-0.682 7.011,-1.969l149.523,-91.088c3.98,-2.424 6.459,-6.826 6.467,-11.489c0.006,-4.661 -2.456,-9.073 -6.427,-11.511z"/>
   <path id="svg_2" fill="#FF0000" d="m369.593,139.057l-51.507,0c-4.741,0 -8.584,3.844 -8.584,8.584l0,200.877c0,4.74 3.843,8.584 8.584,8.584l51.507,0c4.74,0 8.583,-3.844 8.583,-8.584l0,-200.878c0,-4.74 -3.843,-8.583 -8.583,-8.583z"/>
  </g>
 </g>
</svg>