<svg width="496.158" height="496.158" xmlns="http://www.w3.org/2000/svg">
 <g>
  <title>background</title>
  <rect x="-1" y="-1" width="498.158" height="498.158" id="canvas_background" fill="none"/>
 </g>

 <g>
  <title>Layer 1</title>
  <g id="svg_2">
   <path d="m223.082,121.066l-60.006,0c-5.523,0 -10,4.479 -10,10l0,234.024c0,5.523 4.477,10 10,10l60.006,0c5.523,0 10,-4.477 10,-10l0,-234.024c0,-5.521 -4.477,-10 -10,-10z" fill="#999999" id="svg_3"/>
   <path d="m333.082,121.066l-60.006,0c-5.523,0 -10,4.479 -10,10l0,234.024c0,5.523 4.477,10 10,10l60.006,0c5.523,0 10,-4.477 10,-10l0,-234.024c0,-5.521 -4.477,-10 -10,-10z" fill="#999999" id="svg_4"/>
  </g>
  <g id="svg_5"/>
  <g id="svg_6"/>
  <g id="svg_7"/>
  <g id="svg_8"/>
  <g id="svg_9"/>
  <g id="svg_10"/>
  <g id="svg_11"/>
  <g id="svg_12"/>
  <g id="svg_13"/>
  <g id="svg_14"/>
  <g id="svg_15"/>
  <g id="svg_16"/>
  <g id="svg_17"/>
  <g id="svg_18"/>
  <g id="svg_19"/>
 </g>
</svg>