<svg width="496.158" height="496.158" xmlns="http://www.w3.org/2000/svg">

 <g>
  <title>background</title>
  <rect fill="none" id="canvas_background" height="402" width="582" y="-1" x="-1"/>
 </g>
 <g>
  <title>Layer 1</title>
  <path id="svg_1" fill="#ff0019" d="m496.158,248.085c0,-137.022 -111.069,-248.082 -248.075,-248.082c-137.013,0 -248.083,111.06 -248.083,248.082c0,137.001 111.07,248.07 248.083,248.07c137.006,0 248.075,-111.069 248.075,-248.07z"/>
  <path id="svg_2" fill="#FFFFFF" d="m404.191,338.019c0,7.498 -6.077,13.574 -13.573,13.574l-285.077,0c-7.497,0 -13.574,-6.076 -13.574,-13.574l0,-179.88c0,-7.498 6.077,-13.574 13.574,-13.574l285.077,0c7.496,0 13.573,6.076 13.573,13.574l0,179.88z"/>
  <path id="svg_3" fill="#ff0019" d="m335.494,239.131l-123.131,-75.607c-3.361,-2.063 -7.785,-2.154 -11.225,-0.227c-3.504,1.961 -5.682,5.672 -5.682,9.687l0,150.616c0,4.005 2.171,7.715 5.665,9.678c1.654,0.93 3.536,1.421 5.435,1.421c2.039,0 4.036,-0.562 5.775,-1.62l123.129,-75.01c3.277,-1.996 5.317,-5.621 5.324,-9.459c0.008,-3.84 -2.018,-7.472 -5.29,-9.479z"/>
  <g id="svg_4"/>
  <g id="svg_5"/>
  <g id="svg_6"/>
  <g id="svg_7"/>
  <g id="svg_8"/>
  <g id="svg_9"/>
  <g id="svg_10"/>
  <g id="svg_11"/>
  <g id="svg_12"/>
  <g id="svg_13"/>
  <g id="svg_14"/>
  <g id="svg_15"/>
  <g id="svg_16"/>
  <g id="svg_17"/>
  <g id="svg_18"/>
 </g>
</svg>