<svg width="496.158" height="496.158" xmlns="http://www.w3.org/2000/svg">
 <g>
  <title>background</title>
  <rect x="-1" y="-1" width="498.158" height="498.158" id="canvas_background" fill="none"/>
 </g>

 <g>
  <title>Layer 1</title>
  <g id="svg_2" fill="#FFFFFF">
   <path d="m208.121,236.937l149.525,-91.812c4.082,-2.506 9.453,-2.615 13.633,-0.275c4.254,2.379 6.896,6.887 6.896,11.762l0,182.901c0,4.867 -2.633,9.369 -6.877,11.754c-2.01,1.129 -4.293,1.727 -6.602,1.727c-2.475,0 -4.9,-0.682 -7.012,-1.969l-149.523,-91.088c-3.98,-2.424 -6.459,-6.826 -6.467,-11.489c-0.007,-4.661 2.456,-9.073 6.427,-11.511z" fill="#ff0000" id="svg_3"/>
   <path d="m126.564,139.057l51.508,0c4.74,0 8.584,3.844 8.584,8.584l0,200.877c0,4.74 -3.844,8.584 -8.584,8.584l-51.508,0c-4.74,0 -8.582,-3.844 -8.582,-8.584l0,-200.878c0,-4.74 3.842,-8.583 8.582,-8.583z" fill="#ff0000" id="svg_4"/>
  </g>
  <g id="svg_5"/>
  <g id="svg_6"/>
  <g id="svg_7"/>
  <g id="svg_8"/>
  <g id="svg_9"/>
  <g id="svg_10"/>
  <g id="svg_11"/>
  <g id="svg_12"/>
  <g id="svg_13"/>
  <g id="svg_14"/>
  <g id="svg_15"/>
  <g id="svg_16"/>
  <g id="svg_17"/>
  <g id="svg_18"/>
  <g id="svg_19"/>
  <path fill="#CE7975" stroke="null" stroke-width="null" stroke-opacity="null" opacity="0.5" d="m551.578995,251.193583l-119.578995,-11.193583" id="svg_20"/>
  <path id="svg_1" d="m158.578995,216.193583" opacity="0.5" fill-opacity="null" stroke-opacity="null" stroke-width="null" stroke="null" fill="#48A1AF"/>
  <path id="svg_21" d="m173.578995,236.193583" opacity="0.5" fill-opacity="null" stroke-opacity="null" stroke-width="null" stroke="null" fill="#48A1AF"/>
  <path id="svg_22" d="m146.578995,224.193583" opacity="0.5" fill-opacity="null" stroke-opacity="null" stroke-width="null" stroke="null" fill="#48A1AF"/>
 </g>
</svg>