<svg width="496.159" height="496.159" xmlns="http://www.w3.org/2000/svg">

 <g>
  <title>background</title>
  <rect fill="none" id="canvas_background" height="498.158" width="498.158" y="-1" x="-1"/>
 </g>
 <g>
  <title>Layer 1</title>
  <g id="svg_2">
   <path id="svg_3" fill="#ff0000" d="m247.711,125.252c-3.41,-1.851 -7.559,-1.688 -10.813,0.426l-95.137,61.789l-35.164,0c-5.845,0 -10.583,4.738 -10.583,10.584l0,92.727c0,5.845 4.738,10.583 10.583,10.583l35.164,0l95.137,61.79c1.748,1.135 3.753,1.707 5.765,1.707c1.733,0 3.471,-0.425 5.049,-1.281c3.41,-1.852 5.534,-5.421 5.534,-9.301l0,-219.723c-0.002,-3.881 -2.125,-7.45 -5.535,-9.301z"/>
   <path id="svg_4" fill="#ff0000" d="m282.701,319.271c0.894,0 1.801,-0.162 2.685,-0.504c24.239,-9.412 40.524,-38.49 40.524,-72.359c0,-29.957 -13.2,-57.049 -33.63,-69.018c-3.534,-2.072 -8.08,-0.885 -10.153,2.65c-2.073,3.536 -0.885,8.082 2.651,10.153c15.971,9.358 26.291,31.424 26.291,56.214c0,27.359 -12.77,51.424 -31.055,58.525c-3.82,1.481 -5.714,5.781 -4.231,9.602c1.141,2.94 3.946,4.737 6.918,4.737z"/>
   <path id="svg_5" fill="#ff0000" d="m302.073,350.217c0.895,0 1.802,-0.162 2.684,-0.504c34.046,-13.219 57.822,-55.979 57.822,-103.988c0,-43.187 -18.884,-82.156 -48.11,-99.279c-3.534,-2.072 -8.082,-0.885 -10.152,2.652c-2.073,3.535 -0.885,8.081 2.651,10.152c24.768,14.512 40.771,48.455 40.771,86.475c0,42.027 -19.883,79.1 -48.353,90.154c-3.82,1.481 -5.715,5.781 -4.231,9.602c1.14,2.937 3.945,4.736 6.918,4.736z"/>
   <path id="svg_6" fill="#ff0000" d="m322.025,379.715c-3.005,0 -5.841,-1.818 -6.994,-4.788c-1.499,-3.861 0.416,-8.206 4.277,-9.706c38.764,-15.051 65.837,-64.404 65.837,-120.019c0,-50.136 -21.609,-95.192 -55.052,-114.786c-3.574,-2.094 -4.773,-6.688 -2.68,-10.262c2.094,-3.574 6.688,-4.774 10.263,-2.68c37.948,22.232 62.469,72.369 62.469,127.728c0,61.66 -31.009,116.764 -75.409,134.002c-0.89,0.347 -1.808,0.511 -2.711,0.511z"/>
  </g>
  <g id="svg_7"/>
  <g id="svg_8"/>
  <g id="svg_9"/>
  <g id="svg_10"/>
  <g id="svg_11"/>
  <g id="svg_12"/>
  <g id="svg_13"/>
  <g id="svg_14"/>
  <g id="svg_15"/>
  <g id="svg_16"/>
  <g id="svg_17"/>
  <g id="svg_18"/>
  <g id="svg_19"/>
  <g id="svg_20"/>
  <g id="svg_21"/>
 </g>
</svg>